Coordinates
version=1
nRows=19
nColumns=24
inDegrees=yes

Units are S.I. units (second, meters, Newtons, ...)
Angles are in degrees.

endheader
time	pelvis_tilt	pelvis_list	pelvis_rotation	pelvis_tx	pelvis_ty	pelvis_tz	hip_flexion_r	hip_adduction_r	hip_rotation_r	knee_angle_r	ankle_angle_r	subtalar_angle_r	mtp_angle_r	hip_flexion_l	hip_adduction_l	hip_rotation_l	knee_angle_l	ankle_angle_l	subtalar_angle_l	mtp_angle_l	lumbar_extension	lumbar_bending	lumbar_rotation
      1.64500000	      7.87587670	     -3.03255219	      6.97767028	     -0.18465082	      1.00694701	     -0.04314940	     13.33328577	     -3.32451585	    -33.25814374	    -16.44283504	     -5.91839972	      8.04912676	     20.96199579	     -8.27908424	     -4.58013285	    -12.64407744	    -17.78093266	      7.25039975	      2.77712178	      4.74619602	    -15.05936278	     -5.76467586	    -33.20577576
      1.65000000	      7.77374719	     -2.84069291	      7.16972511	     -0.17889136	      1.00569465	     -0.04285732	     13.66740481	     -3.41862102	    -33.83209054	    -15.12451861	     -6.14286420	      9.19275200	     20.90444553	     -8.43145606	     -4.48470376	    -12.54027709	    -17.98590048	      7.60326116	      2.88124588	      4.90963582	    -15.00917426	     -5.92606295	    -33.39314893
      1.65500000	      7.68487321	     -2.64695486	      7.36545179	     -0.17314241	      1.00442884	     -0.04255688	     13.97953615	     -3.50731272	    -34.38847024	    -13.82516768	     -6.36273412	     10.39246788	     20.85033084	     -8.59855337	     -4.38849748	    -12.40806165	    -18.18568468	      7.91792532	      2.93075308	      5.08440515	    -14.97961302	     -6.08431684	    -33.57864861
      1.66000000	      7.59124009	     -2.45235361	      7.55729925	     -0.16738961	      1.00312596	     -0.04223039	     14.29455213	     -3.59361637	    -34.91734853	    -12.56302149	     -6.56316431	     11.64304483	     20.79249475	     -8.75951342	     -4.29488359	    -12.28064499	    -18.38989852	      8.22905621	      2.98053202	      5.28903556	    -14.94738675	     -6.24467649	    -33.75180021
      1.66500000	      7.49034612	     -2.27720949	      7.76269533	     -0.16160727	      1.00179099	     -0.04190326	     14.60331285	     -3.65570815	    -35.42957325	    -11.31846068	     -6.73970397	     12.91595805	     20.56554491	     -8.90937381	     -4.22490613	    -12.13729972	    -18.59333997	      8.47086403	      2.95090154	      5.85990104	    -14.90634092	     -6.37814219	    -33.93823796
      1.67000000	      7.36936916	     -2.06124824	      7.92981391	     -0.15586093	      1.00038934	     -0.04151996	     14.94855770	     -3.76453274	    -35.83258313	    -10.15824321	     -6.86239910	     14.21074391	     20.55246010	     -9.03631557	     -4.11154115	    -12.02850873	    -18.82938767	      8.80353029	      3.06958182	      6.05979019	    -14.85066323	     -6.56441856	    -34.06974115
      1.67500000	      7.25698012	     -1.87046561	      8.12930630	     -0.15008621	      0.99899271	     -0.04116265	     15.26418377	     -3.84646479	    -36.24696642	     -9.01327283	     -7.01242117	     15.47589905	     20.49771183	     -9.16918651	     -4.03084373	    -11.86906875	    -19.05638726	      9.08292310	      3.11780306	      6.35134701	    -14.80415594	     -6.71259240	    -34.21763880
      1.68000000	      7.13024226	     -1.67740400	      8.30440089	     -0.14429601	      0.99754128	     -0.04075756	     15.60126650	     -3.93425382	    -36.57170567	     -7.94779968	     -7.07989000	     16.70802656	     20.46817416	     -9.28459060	     -3.94931001	    -11.76072979	    -19.30513228	      9.39538743	      3.19097767	      6.60434330	    -14.74320637	     -6.87045978	    -34.36771044
      1.68500000	      6.98445591	     -1.49585516	      8.48154203	     -0.13847897	      0.99606262	     -0.04034986	     15.95207271	     -4.01735991	    -36.85568998	     -6.93970800	     -7.15091028	     17.87523368	     20.43747620	     -9.38002096	     -3.87957123	    -11.63108010	    -19.55262922	      9.67928556	      3.27368633	      6.84631174	    -14.65649393	     -7.01240003	    -34.47752508
      1.69000000	      6.87806445	     -1.31174342	      8.68583899	     -0.13264356	      0.99462751	     -0.03997154	     16.24500110	     -4.11031995	    -37.11189365	     -5.99371906	     -7.18628874	     18.95563336	     20.38418237	     -9.51774567	     -3.81950875	    -11.47993099	    -19.79708118	      9.96648434	      3.33578185	      7.15456114	    -14.62097883	     -7.14799091	    -34.64684480
      1.69500000	      6.75901599	     -1.13739718	      8.88532048	     -0.12678755	      0.99317418	     -0.03958272	     16.54922661	     -4.20469151	    -37.30530103	     -5.13231034	     -7.19992710	     19.92659301	     20.31703857	     -9.64113127	     -3.77045683	    -11.32191636	    -20.04566526	     10.23581020	      3.40754391	      7.50306670	    -14.57140889	     -7.26897481	    -34.78147548
      1.70000000	      6.62623557	     -0.97147444	      9.09078810	     -0.12091575	      0.99171267	     -0.03922946	     16.86419256	     -4.31004234	    -37.43956916	     -4.36937873	     -7.14950440	     20.74731478	     19.85622706	     -9.74580134	     -3.72616222	    -11.13831076	    -20.28915985	     10.30707566	      3.35341104	      9.13261431	    -14.50018266	     -7.36993389	    -34.89415031
      1.70500000	      6.49664729	     -0.81365762	      9.28913905	     -0.11498865	      0.99025621	     -0.03882915	     17.17112585	     -4.41734960	    -37.50747250	     -3.70469252	     -7.08490103	     21.41788373	     19.88285130	     -9.85748665	     -3.70256435	    -10.98961649	    -20.55048123	     10.58035731	      3.50551246	      9.24629332	    -14.43135180	     -7.47197398	    -35.02003811
      1.71000000	      6.39211936	     -0.66849444	      9.52169287	     -0.10902419	      0.98884809	     -0.03850743	     17.43753955	     -4.53662773	    -37.57688932	     -3.14546170	     -6.97875044	     21.95210462	     19.90142090	     -9.99290134	     -3.69953085	    -10.79707376	    -20.80961475	     10.84092206	      3.60948920	      9.40407219	    -14.38998019	     -7.53806746	    -35.17051291
      1.71500000	      6.30415323	     -0.53551084	      9.75941132	     -0.10301401	      0.98747490	     -0.03817780	     17.67999585	     -4.65867380	    -37.60295705	     -2.70173543	     -6.81996398	     22.31814296	     19.91775576	    -10.14810329	     -3.71768650	    -10.59465242	    -21.06496189	     11.07917039	      3.71784296	      9.60472791	    -14.36272468	     -7.58760805	    -35.32760931
      1.72000000	      6.23824194	     -0.40240681	      9.97558260	     -0.09695521	      0.98614747	     -0.03784564	     17.89578624	     -4.79089993	    -37.54314089	     -2.37971295	     -6.63176876	     22.46832559	     19.93572710	    -10.34181852	     -3.73306347	    -10.41234894	    -21.30289436	     11.33126427	      3.79285810	      9.75546482	    -14.35920587	     -7.63282173	    -35.46698234
      1.72500000	      6.16783560	     -0.30641874	     10.25017839	     -0.09082695	      0.98485395	     -0.03757684	     18.09714410	     -4.92359885	    -37.54665090	     -2.17465121	     -6.40445860	     22.59463783	     19.92494945	    -10.51422076	     -3.80539321	    -10.17414493	    -21.53374350	     11.29245278	      3.78838459	     11.58059981	    -14.33884184	     -7.62371124	    -35.64803793
      1.73000000	      6.12610665	     -0.20722805	     10.50328059	     -0.08464575	      0.98360415	     -0.03728272	     18.26637305	     -5.06546377	    -37.46750307	     -2.09904598	     -6.11029582	     22.46049235	     19.95554499	    -10.72952771	     -3.87844145	     -9.95904063	    -21.77336311	     11.50796759	      3.90512727	     11.65985565	    -14.34597118	     -7.61421461	    -35.80006560
      1.73500000	      6.08414789	     -0.13713254	     10.78701877	     -0.07844064	      0.98237509	     -0.03700911	     18.42448271	     -5.20337809	    -37.36328735	     -2.13612712	     -5.82458892	     22.16472477	     19.98984261	    -10.92703642	     -3.99608982	     -9.71353538	    -22.03063615	     11.68041706	      4.05542340	     11.80620570	    -14.35256186	     -7.56475028	    -35.98701018
